<svg width="16" height="16" xmlns="http://www.w3.org/2000/svg" class="bi bi-hdd" fill="currentColor">

 <g>
  <title>Layer 1</title>
  <path id="svg_1" d="m4.6875,11a0.5,0.5 0 1 0 0,-1a0.5,0.5 0 0 0 0,1zm-1.5,-0.5a0.5,0.5 0 1 1 -1,0a0.5,0.5 0 0 1 1,0z"/>
  <path id="svg_2" d="m16,11a2,2 0 0 1 -2,2l-12,0a2,2 0 0 1 -2,-2l0,-1.49c0,-0.418 0.105,-0.83 0.305,-1.197l2.472,-4.531a1.5,1.5 0 0 1 1.317,-0.782l7.812,0a1.5,1.5 0 0 1 1.317,0.782l2.472,4.53c0.2,0.368 0.305,0.78 0.305,1.198l0,1.49zm-12.345,-6.74l-2.063,3.783c0.132,-0.029 0.268,-0.043 0.408,-0.043l12,0c0.14,0 0.276,0.014 0.408,0.042l-2.063,-3.782a0.5,0.5 0 0 0 -0.439,-0.26l-7.812,0a0.5,0.5 0 0 0 -0.44,0.26l0.001,0zm-2.655,5.74l0,1a1,1 0 0 0 1,1l12,0a1,1 0 0 0 1,-1l0,-1a1,1 0 0 0 -1,-1l-12,0a1,1 0 0 0 -1,1z"/>
  <path id="svg_4" d="m9,11a0.5,0.5 0 1 0 0,-1a0.5,0.5 0 0 0 0,1zm-1.5,-0.5a0.5,0.5 0 1 1 -1,0a0.5,0.5 0 0 1 1,0z"/>
  <path id="svg_5" d="m13.25,11a0.5,0.5 0 1 0 0,-1a0.5,0.5 0 0 0 0,1zm-1.5,-0.5a0.5,0.5 0 1 1 -1,0a0.5,0.5 0 0 1 1,0z"/>
 </g>
</svg>