<svg width="16" height="16" xmlns="http://www.w3.org/2000/svg" class="bi bi-play" fill="currentColor">

 <g>
  <title>Layer 1</title>
  <path id="svg_1" d="m12.42899,8.125l-5.804,-3.367l0,6.734l5.804,-3.367zm0.792,-0.696a0.802,0.802 0 0 1 0,1.392l-6.363,3.692c-0.52,0.302 -1.233,-0.043 -1.233,-0.696l0,-7.384c0,-0.653 0.713,-0.998 1.233,-0.696l6.363,3.692z"/>
  <path transform="rotate(90 4.03127 8.12462)" stroke="null" id="svg_2" d="m-0.40585,8.12462a0.55469,0.46875 0 0 1 0.55469,-0.46875l7.76562,0a0.55469,0.46875 0 0 1 0,0.9375l-7.76562,0a0.55469,0.46875 0 0 1 -0.55469,-0.46875z"/>
 </g>
</svg>