<svg width="16" height="16" xmlns="http://www.w3.org/2000/svg" fill="currentColor" class="bi bi-globe">
 <g>
  <title>Layer 1</title>
  <path stroke="null" d="m3.5,8.4375a4.40625,4.5 0 1 1 8.8125,0a4.40625,4.5 0 0 1 -8.8125,0zm4.13086,-3.89419c-0.36902,0.11475 -0.73529,0.46125 -1.03932,1.04344a4.38973,4.48313 0 0 0 -0.25777,0.60075l1.29709,0l0,-1.64419zm-1.87816,1.64419a5.10409,5.21269 0 0 1 0.3525,-0.86569a3.69024,3.76875 0 0 1 0.32882,-0.52481a3.86924,3.95156 0 0 0 -1.692,1.3905l1.01068,0zm-0.32055,1.96875c0.01652,-0.49331 0.07601,-0.96638 0.17184,-1.40625l-1.18198,0a3.83234,3.91388 0 0 0 -0.36131,1.40625l1.37145,0zm0.7375,-1.40625a6.88477,7.03125 0 0 0 -0.18616,1.40625l1.64739,0l0,-1.40625l-1.46122,0zm2.012,0l0,1.40625l1.64684,0a6.88201,7.02844 0 0 0 -0.18561,-1.40625l-1.46122,0zm-2.19762,1.96875a6.88477,7.03125 0 0 0 0.18561,1.40625l1.46122,0l0,-1.40625l-1.64684,0zm2.19762,0l0,1.40625l1.46122,0c0.103,-0.43031 0.16854,-0.9045 0.18616,-1.40625l-1.64739,0zm-1.84787,1.96875c0.07601,0.21713 0.16248,0.4185 0.25777,0.60075c0.30403,0.58219 0.67085,0.92813 1.03932,1.04344l0,-1.64419l-1.29709,0zm0.10024,1.3905a3.68803,3.7665 0 0 1 -0.32882,-0.52481a5.10464,5.21325 0 0 1 -0.3525,-0.86569l-1.01068,0a3.86869,3.951 0 0 0 1.692,1.3905zm-0.83003,-1.953a7.51927,7.67925 0 0 1 -0.17184,-1.40625l-1.37145,0c0.03415,0.50063 0.16028,0.97481 0.36131,1.40625l1.18198,0zm3.7745,1.953a3.86869,3.951 0 0 0 1.692,-1.3905l-1.01068,0a5.10574,5.21438 0 0 1 -0.3525,0.86569a3.68363,3.762 0 0 1 -0.32882,0.52481zm-1.19685,-1.3905l0,1.64419c0.36902,-0.11475 0.73529,-0.46125 1.03932,-1.04344c0.09529,-0.18225 0.18176,-0.38363 0.25777,-0.60075l-1.29709,0zm2.02688,-0.5625l1.18198,0c0.20104,-0.43144 0.32716,-0.90563 0.36131,-1.40625l-1.37145,0a7.51817,7.67813 0 0 1 -0.17184,1.40625zm1.54329,-1.96875a3.83289,3.91444 0 0 0 -0.36131,-1.40625l-1.18198,0c0.09584,0.43988 0.15532,0.91294 0.17184,1.40625l1.37145,0zm-2.0445,-2.83444c0.13604,0.261 0.25446,0.55125 0.3525,0.86569l1.01068,0a3.86869,3.951 0 0 0 -1.692,-1.3905c0.12007,0.15975 0.23023,0.33638 0.32882,0.52481zm-0.22857,0.86569a4.38752,4.48088 0 0 0 -0.25777,-0.60075c-0.30403,-0.58219 -0.6703,-0.92813 -1.03932,-1.04344l0,1.64419l1.29709,0z" id="svg_1"/>
  <path d="m130.2916,484.58888l160.61607,-199.7651c7.81785,-9.72403 27.36323,-9.72403 35.18182,0l160.61681,199.7651c7.81785,9.72403 -1.95483,21.87814 -17.59054,21.87814l-321.23363,0c-15.63571,0 -25.40914,-12.15411 -17.59054,-21.87814l0.00001,0z" fill="#F5C525" id="svg_2" stroke="null"/>
  <path stroke="null" d="m7.60315,12.20253l2.37672,-4.41637c0.11569,-0.21497 0.40491,-0.21497 0.5206,0l2.37674,4.41637c0.11569,0.21497 -0.02893,0.48367 -0.2603,0.48367l-4.75347,0c-0.23137,0 -0.37599,-0.2687 -0.2603,-0.48367z" fill="#F5C525" id="svg_3"/>
  <path stroke="null" id="svg_4" d="m10.13431,7.77787a0.04826,0.05166 0 0 1 0.02376,-0.00636a0.04826,0.05166 0 0 1 0.02339,0.00636a0.05419,0.05802 0 0 1 0.02005,0.02265l2.54535,4.63627c0.01337,0.02384 0.01299,0.04928 0.00074,0.07272a0.06051,0.06477 0 0 1 -0.02005,0.02384a0.04306,0.04609 0 0 1 -0.0245,0.00676l-5.08997,0a0.04269,0.0457 0 0 1 -0.0245,-0.00676a0.06051,0.06477 0 0 1 -0.02005,-0.02384a0.06533,0.06994 0 0 1 0.00074,-0.07272l2.54498,-4.63627a0.05456,0.05842 0 0 1 0.02005,-0.02265l-0.00001,0zm0.38754,-0.17882a0.41946,0.44904 0 0 0 -0.72756,0l-2.54535,4.63627c-0.16964,0.30916 0.03378,0.70217 0.36378,0.70217l5.09034,0c0.33,0 0.53379,-0.39341 0.36378,-0.70217l-2.54498,-4.63627z"/>
  <path stroke="null" d="m9.75193,11.72538a0.37501,0.33626 0 1 1 0.75001,0a0.37501,0.33626 0 0 1 -0.75001,0zm0.03675,-2.01921a0.33938,0.30431 0 1 1 0.67501,0l-0.13125,1.17925a0.207,0.18562 0 0 1 -0.41251,0l-0.13125,-1.17925l-0.00001,0z" id="svg_5"/>
 </g>

</svg>