<svg width="16" height="16" xmlns="http://www.w3.org/2000/svg" class="bi bi-hdd" fill="currentColor">

 <g>
  <title>Layer 1</title>
  <path id="svg_1" d="m4.75,11.1875a0.5,0.5 0 1 0 0,-1a0.5,0.5 0 0 0 0,1zm-1.5,-0.5a0.5,0.5 0 1 1 -1,0a0.5,0.5 0 0 1 1,0z"/>
  <path id="svg_2" d="m16,11a2,2 0 0 1 -2,2l-12,0a2,2 0 0 1 -2,-2l0,-1.49c0,-0.418 0.105,-0.83 0.305,-1.197l2.472,-4.531a1.5,1.5 0 0 1 1.317,-0.782l7.812,0a1.5,1.5 0 0 1 1.317,0.782l2.472,4.53c0.2,0.368 0.305,0.78 0.305,1.198l0,1.49zm-12.345,-6.74l-2.063,3.783c0.132,-0.029 0.268,-0.043 0.408,-0.043l12,0c0.14,0 0.276,0.014 0.408,0.042l-2.063,-3.782a0.5,0.5 0 0 0 -0.439,-0.26l-7.812,0a0.5,0.5 0 0 0 -0.44,0.26l0.001,0zm-2.655,5.74l0,1a1,1 0 0 0 1,1l12,0a1,1 0 0 0 1,-1l0,-1a1,1 0 0 0 -1,-1l-12,0a1,1 0 0 0 -1,1z"/>
  <path stroke="null" id="svg_3" d="m3.188,6.85558a0.17407,0.11331 0 0 0 0.17407,0.11331l4.10567,0l-1.09561,0.71293a0.17407,0.11331 0 0 0 0.24649,0.16044l1.39258,-0.90646a0.17407,0.11331 0 0 0 0,-0.16044l-1.39258,-0.90646a0.17407,0.11331 0 0 0 -0.24649,0.16044l1.09561,0.71293l-4.10567,0a0.17407,0.11331 0 0 0 -0.17407,0.11331zm4.87402,-1.58631a0.17407,0.11331 0 0 1 -0.17407,0.11331l-4.10567,0l1.09561,0.71293a0.17407,0.11331 0 1 1 -0.24649,0.16044l-1.39258,-0.90646a0.17407,0.11331 0 0 1 0,-0.16044l1.39258,-0.90646a0.17407,0.11331 0 1 1 0.24649,0.16044l-1.09561,0.71293l4.10567,0a0.17407,0.11331 0 0 1 0.17407,0.11331z" fill-rule="evenodd"/>
  <path stroke="null" id="svg_5" d="m8.06189,6.76574a0.17415,0.1094 0 0 0 0.17415,0.10941l4.1075,0l-1.0961,0.68835a0.17415,0.1094 0 0 0 0.2466,0.15492l1.3932,-0.87522a0.17415,0.1094 0 0 0 0,-0.15491l-1.3932,-0.87522a0.17415,0.1094 0 0 0 -0.2466,0.15491l1.0961,0.68836l-4.1075,0a0.17415,0.1094 0 0 0 -0.17415,0.1094zm4.8762,-1.53163a0.17415,0.1094 0 0 1 -0.17415,0.1094l-4.1075,0l1.0961,0.68836a0.17415,0.1094 0 1 1 -0.2466,0.15492l-1.3932,-0.87522a0.17415,0.1094 0 0 1 0,-0.15492l1.3932,-0.87521a0.17415,0.1094 0 1 1 0.2466,0.15491l-1.0961,0.68836l4.1075,0a0.17415,0.1094 0 0 1 0.17415,0.1094z" fill-rule="evenodd"/>
  <path id="svg_7" d="m8.93748,11.1875a0.5,0.5 0 1 0 0,-1a0.5,0.5 0 0 0 0,1zm-1.5,-0.5a0.5,0.5 0 1 1 -1,0a0.5,0.5 0 0 1 1,0z"/>
  <path id="svg_8" d="m12.99997,11.125a0.5,0.5 0 1 0 0,-1a0.5,0.5 0 0 0 0,1zm-1.5,-0.5a0.5,0.5 0 1 1 -1,0a0.5,0.5 0 0 1 1,0z"/>
 </g>
</svg>