<svg width="16" height="16" xmlns="http://www.w3.org/2000/svg" class="bi bi-square" fill="currentColor">

 <g>
  <title>Layer 1</title>
  <path id="svg_1" d="m14,1a1,1 0 0 1 1,1l0,12a1,1 0 0 1 -1,1l-12,0a1,1 0 0 1 -1,-1l0,-12a1,1 0 0 1 1,-1l12,0zm-12,-1a2,2 0 0 0 -2,2l0,12a2,2 0 0 0 2,2l12,0a2,2 0 0 0 2,-2l0,-12a2,2 0 0 0 -2,-2l-12,0z"/>
  <path stroke="null" id="svg_2" d="m6.27344,4.28906a1.17774,1.22656 0 0 1 1.17774,-1.22656l0.78516,0a1.17774,1.22656 0 0 1 1.17774,1.22656l0,0.81771a1.17774,1.22656 0 0 1 -1.17774,1.22656l0,0.81771l4.31836,0a0.39258,0.40885 0 0 1 0.39258,0.40885l0,0.81771a0.39258,0.40885 0 0 1 -0.78516,0l0,-0.40885l-3.92579,0l0,0.40885a0.39258,0.40885 0 0 1 -0.78516,0l0,-0.40885l-3.92579,0l0,0.40885a0.39258,0.40885 0 0 1 -0.78516,0l0,-0.81771a0.39258,0.40885 0 0 1 0.39258,-0.40885l4.31836,0l0,-0.81771a1.17774,1.22656 0 0 1 -1.17774,-1.22656l0,-0.81771zm1.96289,1.22656a0.39258,0.40885 0 0 0 0.39258,-0.40885l0,-0.81771a0.39258,0.40885 0 0 0 -0.39258,-0.40885l-0.78516,0a0.39258,0.40885 0 0 0 -0.39258,0.40885l0,0.81771a0.39258,0.40885 0 0 0 0.39258,0.40885l0.78516,0zm-6.67384,5.31511a1.17774,1.22656 0 0 1 1.17774,-1.22656l0.78516,0a1.17774,1.22656 0 0 1 1.17774,1.22656l0,0.81771a1.17774,1.22656 0 0 1 -1.17774,1.22656l-0.78516,0a1.17774,1.22656 0 0 1 -1.17774,-1.22656l0,-0.81771zm1.17774,-0.40885a0.39258,0.40885 0 0 0 -0.39258,0.40885l0,0.81771a0.39258,0.40885 0 0 0 0.39258,0.40885l0.78516,0a0.39258,0.40885 0 0 0 0.39258,-0.40885l0,-0.81771a0.39258,0.40885 0 0 0 -0.39258,-0.40885l-0.78516,0zm3.53321,0.40885a1.17774,1.22656 0 0 1 1.17774,-1.22656l0.78516,0a1.17774,1.22656 0 0 1 1.17774,1.22656l0,0.81771a1.17774,1.22656 0 0 1 -1.17774,1.22656l-0.78516,0a1.17774,1.22656 0 0 1 -1.17774,-1.22656l0,-0.81771zm1.17774,-0.40885a0.39258,0.40885 0 0 0 -0.39258,0.40885l0,0.81771a0.39258,0.40885 0 0 0 0.39258,0.40885l0.78516,0a0.39258,0.40885 0 0 0 0.39258,-0.40885l0,-0.81771a0.39258,0.40885 0 0 0 -0.39258,-0.40885l-0.78516,0zm3.53321,0.40885a1.17774,1.22656 0 0 1 1.17774,-1.22656l0.78516,0a1.17774,1.22656 0 0 1 1.17774,1.22656l0,0.81771a1.17774,1.22656 0 0 1 -1.17774,1.22656l-0.78516,0a1.17774,1.22656 0 0 1 -1.17774,-1.22656l0,-0.81771zm1.17774,-0.40885a0.39258,0.40885 0 0 0 -0.39258,0.40885l0,0.81771a0.39258,0.40885 0 0 0 0.39258,0.40885l0.78516,0a0.39258,0.40885 0 0 0 0.39258,-0.40885l0,-0.81771a0.39258,0.40885 0 0 0 -0.39258,-0.40885l-0.78516,0z" fill-rule="evenodd"/>
 </g>
</svg>